<?xml version="1.0" standalone="no"?>
<!DOCTYPE svg PUBLIC "-//W3C//DTD SVG 20010904//EN"
 "http://www.w3.org/TR/2001/REC-SVG-20010904/DTD/svg10.dtd">
<svg version="1.0" xmlns="http://www.w3.org/2000/svg"
 width="700.000000pt" height="700.000000pt" viewBox="0 0 700.000000 700.000000"
 preserveAspectRatio="xMidYMid meet">
<metadata>
Created by potrace 1.11, written by Peter Selinger 2001-2013
</metadata>
<g transform="translate(0.000000,700.000000) scale(0.100000,-0.100000)"
fill="#000000" stroke="none">
<path d="M5135 5709 c-93 -13 -228 -55 -306 -94 -39 -20 -240 -136 -447 -259
-489 -289 -915 -535 -1847 -1066 -418 -238 -770 -442 -782 -454 -11 -11 -214
-325 -450 -696 -237 -371 -543 -850 -681 -1064 -276 -426 -315 -502 -316 -613
-1 -74 19 -107 85 -140 91 -46 153 -46 959 -8 410 20 984 48 1276 64 l531 27
179 106 c291 172 511 298 1254 720 1108 629 1529 874 1655 964 162 115 308
312 380 512 160 450 57 966 -287 1428 -309 413 -774 635 -1203 573z m271 -110
c170 -23 366 -103 510 -205 277 -198 521 -556 614 -903 21 -76 22 -90 11 -165
-34 -243 -160 -430 -354 -526 -93 -46 -191 -70 -288 -70 -64 0 -66 -1 -81 -33
-9 -18 -28 -48 -44 -66 -30 -35 -120 -111 -133 -111 -4 0 -13 51 -20 113 -52
480 -308 929 -696 1220 -168 126 -427 238 -622 270 -40 6 -73 14 -73 17 0 8
215 130 228 130 6 0 12 4 14 9 7 20 465 273 529 292 129 39 261 48 405 28z
m-1022 -554 c227 -66 465 -207 642 -381 244 -240 426 -571 495 -901 20 -96 40
-271 32 -285 -5 -9 -125 -45 -174 -51 l-36 -5 -7 66 c-22 229 -119 504 -256
722 -191 307 -472 546 -788 674 -79 32 -229 73 -300 82 -29 4 -50 10 -45 15 4
4 50 32 102 61 l94 55 78 -14 c43 -7 117 -25 163 -38z m-406 -131 c216 -44
436 -145 627 -288 78 -59 232 -214 294 -296 206 -275 322 -548 366 -863 l6
-48 -48 6 c-115 16 -233 62 -233 93 0 20 -39 143 -70 222 -167 424 -522 798
-909 955 -87 36 -256 83 -324 91 -36 4 -55 10 -49 16 27 27 211 126 235 127
15 1 63 -6 105 -15z m-146 -233 c380 -90 697 -359 934 -793 65 -119 149 -327
137 -338 -14 -13 -1557 -903 -1573 -907 -11 -3 -22 17 -40 74 -83 258 -285
564 -485 735 -227 193 -471 303 -774 347 l-115 17 260 149 c142 82 489 281
769 444 459 265 515 295 565 300 79 9 222 -4 322 -28z m-1703 -946 c374 -72
696 -295 926 -640 286 -428 349 -923 172 -1360 -56 -140 -106 -225 -132 -225
-11 0 -314 -16 -674 -35 -360 -19 -666 -35 -681 -35 l-26 0 24 73 c80 234 5
532 -197 781 -105 130 -256 227 -406 263 -38 9 -72 17 -73 19 -2 1 142 229
321 506 178 277 350 543 382 592 l57 89 111 -6 c62 -3 150 -13 196 -22z m-932
-1304 c103 -31 242 -139 307 -237 20 -31 25 -48 20 -69 -10 -39 -105 -138
-182 -189 -230 -151 -579 -257 -661 -200 -20 15 -23 22 -17 61 8 63 59 152
193 343 63 91 137 199 164 241 l49 76 48 -8 c26 -4 61 -12 79 -18z"/>
<path d="M5267 5528 c-76 -9 -177 -42 -252 -82 l-50 -26 60 7 c109 14 353 8
445 -11 117 -25 273 -77 360 -121 l74 -37 -33 38 c-48 55 -160 138 -234 173
-110 52 -246 74 -370 59z"/>
</g>
</svg>
