<svg version="1" xmlns="http://www.w3.org/2000/svg" width="933.333" height="933.333" viewBox="0 0 700.000000 700.000000"><path d="M513.5 129c-9.6 1.5-22.9 5.7-30.6 9.5-3.9 2-24 13.6-44.7 25.9-48.9 28.9-91.5 53.5-184.7 106.6-41.8 23.8-77 44.2-78.2 45.4-1.1 1.1-21.4 32.5-45 69.6-23.7 37.1-54.3 85-68.1 106.4-27.6 42.6-31.5 50.2-31.6 61.3-.1 7.4 1.9 10.7 8.5 14 9.1 4.6 15.3 4.6 95.9.8 41-2 98.4-4.8 127.6-6.4l53.1-2.7 17.9-10.6c29.1-17.2 51.1-29.8 125.4-72 110.8-62.9 152.9-87.4 165.5-96.4 16.2-11.5 30.8-31.2 38-51.2 16-45 5.7-96.5-28.8-142.8-26.6-35.8-62.9-56.4-102.2-57.8-6.6-.3-14.7-.1-18 .4zm35.4 12.9c31.9 7 60.7 28.5 81.5 61 3.9 6 4.5 7.6 3.4 8.6-.7.6-17 10.3-36.3 21.3-19.2 11.1-35.6 20.6-36.4 21.1-1.2.8-.4 3 4.2 12.3 7 14.2 12.2 29 15.3 43.8 3.7 17.8 3.4 19.9-4.3 28.2-4.9 5.1-13.3 11.5-13.3 10.1-.2-5.3-2.3-21.7-3.5-27.9-3.8-18-13.9-42.9-23.7-58.4-25.6-40.1-64.8-67.3-107.1-74.4l-7.1-1.1 11.9-6.8c6.6-3.8 12.7-7.2 13.5-7.7 50.2-29 51.5-29.6 66.5-32 8.4-1.3 24.8-.4 35.4 1.9zm-117.1 51.7c25 5.8 49.6 19.4 69.3 38.2 30.9 29.4 52.5 74.8 54.1 113.7l.3 7-6.5 2.1c-3.6 1.2-8.3 2.4-10.6 2.8l-4 .6-1.3-9.1c-5-37.7-23.1-74-50.5-101.5-23.1-23.1-50.9-37.7-83.3-43.7l-6.2-1.2 10.7-6.2c12.1-7 10.5-6.8 28-2.7zm-43.2 12.3c-.3.5 2 1.2 5.2 1.6 9 1.1 27.8 7.1 38.7 12.4 23.9 11.6 44.5 28.8 60.1 50.1 17.8 24.4 30.7 55.7 33.9 82.2.7 5.2.6 5.8-1.1 5.8-4.1-.1-15.8-3.1-20.8-5.3l-5.2-2.4-2.3-8.4c-7.5-27.6-25.1-57-46.8-78-24.3-23.7-52.1-37.6-86.6-43.1-1.1-.2 3.4-3.4 11.5-8 14.1-8.2 14.2-8.3 13.4-6.9zm-9.3 25.2c25.1 5 49 18.8 68.7 39.5 14 14.8 29.3 38.9 37.5 59.2 6.8 16.7 7.4 14.6-6.2 22.3-12.6 7.1-138.7 79.8-143.9 83l-3.1 1.9-3.3-9.2c-7.9-23-21.8-45.5-38.4-62.7-14.4-14.7-25.1-22.7-41.1-30.6-14.9-7.4-28.9-11.8-45.7-14.3l-11.8-1.7 47.3-27.2c25.9-15 60.7-35.1 77.2-44.7l30-17.5h11.3c7.7-.1 14.7.6 21.5 2zm-171.8 94.4c46 6.9 85.6 37 108.4 82.3 12.1 24 16.6 42.7 16.5 68.2 0 17.5-1.2 25.8-6.1 41.5-2.8 9-12.9 30.4-14.7 31-1 .4-133.5 7.5-138.2 7.5h-2.2l2.6-6.3c3.7-9.1 4.2-25.7 1.3-38.2-4.3-18.4-18.3-41-32.3-52.4-8.1-6.7-20.9-13-30.1-15l-7.3-1.6 30.3-47c16.7-25.9 34-52.5 38.3-59.3l7.9-12.2h7.8c4.3 0 12.3.7 17.8 1.5zm-91 130.9c9.6 2.5 16.7 6.8 25.1 15.1 4.5 4.4 8.9 9.5 9.8 11.2 1.5 3.1 1.5 3.5 0 6.5-2.1 4-10.5 12.4-16.6 16.6-17.3 11.9-52.1 23.9-63.2 21.8-4.9-.9-6.1-3.5-4.6-9.4 1.5-6.1 5.7-13.1 21.4-35.7 7.2-10.5 14.4-20.9 15.9-23.3 3-4.7 4.2-5 12.2-2.8z"/></svg>