<svg width="48" height="48" version="1.1" viewBox="0 0 24 24" xmlns="http://www.w3.org/2000/svg"><path d="m22 19-1-1.9c0.63-3.4-1.1-6.3-3.2-8.2-1.8-1.6-1.2-3.1-1.2-4.5 0-2.1-1-4.4-4-4.4-3.2 0-4.1 2.4-4.2 3.7-0.078 3.3 0.75 4.1-1.4 6.5-2.6 2.8-2.9 5.6-2.4 7.1-0.27 0.28-0.64 0.58-1.3 0.83-1.9 0.72-0.5 1.9-1 2.8-0.15 0.24-0.22 0.49-0.22 0.74 0 0.75 0.68 1.4 1.9 1.3 1.7-0.13 3.2 0.9 4.2 0.9 0.88 0 1.6-0.44 1.9-1 1.6-0.34 3.5-0.3 5.1 0.058 0.28 0.69 1 1.1 1.9 1.1 1.9 0 2.2-1.8 4.3-2.5 0.77-0.22 1.2-0.88 1.2-1.5 0-0.39-0.16-0.76-0.48-0.99zm-10-10c-0.36 0-0.66-0.26-1.1-0.57-0.6-0.39-1.2-0.62-1.2-1 0-0.28 0.43-0.37 0.99-0.68 0.6-0.33 0.83-0.67 1.4-0.67 0.6 0 0.79 0.27 1.6 0.58 0.81 0.31 1.4 0.43 1.4 0.77 0 0.35-0.84 0.61-1.3 0.87-0.69 0.38-1.1 0.73-1.7 0.73zm1.9-5.2c1 0.14 1.1 1.7 0.64 2.5l-0.4-0.14c0.21-0.54 0.21-1.4-0.5-1.5-0.44-0.036-0.73 0.48-0.79 0.92-0.17-0.065-0.37-0.11-0.6-0.13 0.074-0.92 0.75-1.7 1.7-1.6zm-3.9 0.33c0.77-0.17 1.2 0.62 1.2 1.4l-0.35 0.19c-0.049-0.34-0.22-0.9-0.66-0.78-0.47 0.13-0.39 1.1-0.13 1.3l-0.35 0.17c-0.48-0.71-0.48-2.1 0.26-2.3zm-2.4 19c-2.2-0.89-3-0.69-3.4-0.69-0.89 0-1.2-0.58-0.84-1.1 0.28-0.46 0.19-0.95 0.13-1.3-0.11-0.6-0.13-0.8 0.55-1.1 0.93-0.35 1.3-0.79 1.6-1.1 0.86-0.94 1.7 0.54 2.4 1.8 0.47 0.85 1.4 1.3 1.7 2.2 0.26 0.87-0.81 1.8-2.2 1.3zm8-1.9c-1.6 0.67-3.6 0.98-5.1 0.3-0.22-0.56-0.58-0.93-0.96-1.3 0.62-0.14 1.1-0.81 0.52-1.5-0.58-0.72-1.8-1.2-3-2-1.1-0.76-1.5-2.6 0.049-4.7-0.74 1.9-0.31 3.6 0.066 4.1 0.076-0.99 0.17-2.6 1.7-4.6 0.77-1 0.79-2.3 0.81-3.1l0.71 0.42c0.52 0.34 0.96 0.71 1.6 0.71 0.92 0 1.4-0.47 2.1-0.85 0.28-0.15 0.7-0.3 1-0.51 0.59 2.5 3 5.5 3.2 7.1 0.57-1-0.16-3.5-0.16-3.5 0.96 1.3 1 2.4 1.1 3.7 0.67 0.24 1.4 0.87 1.5 1.7l-0.28-0.029c-0.14-0.92-3-2.3-3.2-0.54-1.4 0.18-0.86 2.1-1.1 3.3-0.13 0.56-0.36 1-0.53 1.5zm5.5-0.041c-1.1 0.38-1.9 1.2-2.4 1.7-1 0.97-2.3 0.5-2.5-0.4-0.15-0.97 0.41-1.5 0.65-2.6 0.22-0.99-0.027-2.5 0.49-2.7 0.33 1.8 2.4 1 2.8 0.54 0.75 0 0.81 0.22 0.98 0.84 0.1 0.39 0.25 0.71 0.66 1.1 0.48 0.44 0.33 1.1-0.72 1.5zm-9.1-13c-0.74 0-1.3-0.43-1.7-0.77-0.23-0.17 0.055-0.49 0.29-0.31 0.44 0.33 0.89 0.67 1.5 0.67 0.69 0 1.3-0.52 2.1-0.8 0.28-0.097 0.44 0.29 0.16 0.38-0.8 0.28-1.4 0.83-2.3 0.83z" stroke-width="1.9"/></svg>
