<?xml version="1.0" encoding="UTF-8"?>
<svg width="48" height="48" version="1.1" viewBox="0 0 48 48.000005" xmlns="http://www.w3.org/2000/svg"><title>Windows Vista logo</title><g transform="translate(0 -1004.4)"><g transform="matrix(1.2046 0 0 1.2046 -36.031 -180.8)" fill="#050502" stroke-width=".23405"><path d="m69.76 991.08c-7.7229 3.193-11.436 1.398-14.783-0.85429l-3.8099 13.215c3.3435 2.2652 7.38 4.1276 14.789 0.8105z"/><path d="m44.654 1017.7c-3.3542-2.2575-7.0006-4.1142-14.742-0.9133l3.7905-13.24c7.7428-3.2014 11.462-1.3898 14.813 0.8815l-3.8621 13.272z"/><path d="m49.159 1002c-2.0194-1.3598-4.1912-2.6291-7.2756-2.6525-2.035-0.0155-4.4575 0.56244-7.5328 1.834l3.8112-13.206c7.7376-3.1994 11.454-1.3887 14.803 0.88096z"/><path d="m50.525 1005.7c3.3501 2.2556 7.0712 4.0522 14.802 0.8566l-3.8107 13.162c-7.7325 3.1981-11.446 1.387-14.792-0.8823z"/></g></g></svg>
