<?xml version="1.0" encoding="UTF-8" standalone="no"?>
<!-- Created with Inkscape (http://www.inkscape.org/) -->

<svg
   xmlns:dc="http://purl.org/dc/elements/1.1/"
   xmlns:cc="http://creativecommons.org/ns#"
   xmlns:rdf="http://www.w3.org/1999/02/22-rdf-syntax-ns#"
   xmlns:svg="http://www.w3.org/2000/svg"
   xmlns="http://www.w3.org/2000/svg"
   xmlns:sodipodi="http://sodipodi.sourceforge.net/DTD/sodipodi-0.dtd"
   xmlns:inkscape="http://www.inkscape.org/namespaces/inkscape"
   width="256"
   height="256"
   viewBox="0 0 67.733331 67.733331"
   version="1.1"
   id="svg8"
   inkscape:version="0.92.2 5c3e80d, 2017-08-06"
   sodipodi:docname="upload_icon.svg">
  <defs
     id="defs2" />
  <sodipodi:namedview
     id="base"
     pagecolor="#ffffff"
     bordercolor="#666666"
     borderopacity="1.0"
     inkscape:pageopacity="0.0"
     inkscape:pageshadow="2"
     inkscape:zoom="1.979899"
     inkscape:cx="36.62606"
     inkscape:cy="118.79942"
     inkscape:document-units="mm"
     inkscape:current-layer="layer1"
     showgrid="false"
     units="px"
     inkscape:snap-global="false"
     inkscape:window-width="2560"
     inkscape:window-height="1395"
     inkscape:window-x="0"
     inkscape:window-y="1"
     inkscape:window-maximized="1" />
  <metadata
     id="metadata5">
    <rdf:RDF>
      <cc:Work
         rdf:about="">
        <dc:format>image/svg+xml</dc:format>
        <dc:type
           rdf:resource="http://purl.org/dc/dcmitype/StillImage" />
        <dc:title />
      </cc:Work>
    </rdf:RDF>
  </metadata>
  <g
     inkscape:label="Layer 1"
     inkscape:groupmode="layer"
     id="layer1"
     transform="translate(0,-229.26668)">
    <path
       inkscape:connector-curvature="0"
       id="path819"
       style="font-style:normal;font-variant:normal;font-weight:normal;font-stretch:normal;font-size:medium;line-height:125%;font-family:Carosello;-inkscape-font-specification:Carosello;letter-spacing:0px;word-spacing:0px;fill:#ffffff;fill-opacity:1;stroke:none;stroke-width:0.40739864px;stroke-linecap:butt;stroke-linejoin:miter;stroke-opacity:1"
       d="m 52.385039,284.52426 v 0 c 0.02334,-0.0116 0.02921,-0.0291 0.0176,-0.0525 l 0.105043,-0.0522 0.297905,-0.27926 c 0.07015,-0.0931 0.116899,-0.14548 0.140242,-0.15713 0.105227,-0.13971 0.181302,-0.27948 0.228226,-0.41931 0.03519,-0.10487 0.05302,-0.27392 0.05349,-0.50713 0.04692,-0.13983 0.05883,-0.26224 0.03572,-0.36723 0.01208,-0.20986 -0.005,-0.41978 -0.0512,-0.62977 -0.02311,-0.10499 -0.0695,-0.22752 -0.13918,-0.36758 l 1.77e-4,-0.0875 c -0.02311,-0.10499 -0.08111,-0.25087 -0.174024,-0.43762 l 1.77e-4,-0.0875 c 0.01197,-0.15157 -0.01108,-0.28571 -0.06915,-0.40244 -0.09291,-0.18675 -0.162531,-0.35222 -0.208863,-0.58649 -0.04633,-0.23425 -0.08105,-0.43246 -0.104166,-0.59461 -0.08129,-0.25239 -0.127683,-0.44163 -0.13918,-0.56773 l -0.15678,-0.48674 -0.19162,-0.59488 c -0.03496,-0.0181 -0.06405,-0.0632 -0.08728,-0.13529 l 1.76e-4,-0.13514 c 1.18e-4,-0.09 -0.01725,-0.1891 -0.05209,-0.29731 l -0.365819,-1.13572 -0.191621,-0.59488 -0.03485,-0.10826 c -0.02323,-0.0722 -0.02317,-0.11723 1.77e-4,-0.13514 l -0.01741,-0.0541 -0.06986,-0.0814 -0.08711,-0.27042 -0.03484,-0.10827 -0.121935,-0.37858 c -0.05807,-0.18028 -0.110392,-0.2975 -0.156957,-0.35167 -0.01161,-0.0359 -0.0407,-0.081 -0.08727,-0.1353 -0.01161,-0.036 -0.05237,-0.0722 -0.122289,-0.10842 l -0.19215,-0.18976 c -0.174788,-0.0905 -0.291333,-0.13592 -0.349635,-0.13623 -0.05831,-1.7e-4 -0.128281,0.009 -0.209924,0.0264 -0.05831,-1.8e-4 -0.128281,0.009 -0.209922,0.0264 -0.279897,0.0352 -0.484013,0.0796 -0.612348,0.13314 l -0.297375,0.0261 c -0.04669,0.0358 -0.0759,0.0808 -0.08763,0.13483 l -0.05261,0.10796 c -0.05842,0.0899 -0.111092,0.2428 -0.158016,0.45873 -0.03555,0.43212 -0.05919,0.67517 -0.07092,0.72916 l -0.01812,0.48618 -0.141475,1.18818 -0.159074,1.26913 -0.08886,1.08029 c -0.02347,0.10796 -0.03532,0.252 -0.03555,0.43211 -0.03519,0.16196 -0.06463,0.38698 -0.08834,0.67505 l -0.07074,0.40219 -0.03501,0.0174 -0.209922,0.0171 -0.384828,0.0168 c -0.06992,-0.0235 -0.122412,-0.012 -0.157487,0.0346 l -0.03502,0.0174 -0.297376,0.0169 -0.559734,0.0163 -0.332393,0.0343 -1.136889,-0.002 c -0.909489,-0.0135 -1.451686,-0.0205 -1.626592,-0.0208 -1.445937,0.0204 -2.798497,-0.006 -4.05768,-0.0782 l -0.174906,-3.6e-4 -1.259536,0.1024 c -0.921219,0.0215 -1.784078,0.0139 -2.588575,-0.0226 l -0.192327,-0.0354 -0.08746,-1.7e-4 -0.07003,0.0348 -0.97958,0.0505 -2.011421,-0.005 -0.03501,0.0174 -1.644012,-0.0557 c -0.221595,0.0229 -0.542256,0.0222 -0.961983,-0.002 -0.338199,0.0227 -0.641382,0.0279 -0.909548,0.0157 -0.268166,-0.0122 -0.489702,-0.0185 -0.664608,-0.0188 l -2.675851,-0.1104 -1.591398,-0.12565 -2.27325,-0.26695 c -0.489643,-0.0735 -0.862682,-0.14668 -1.119117,-0.2195 -0.02334,0.0179 -0.04082,0.009 -0.05243,-0.0272 l -0.01741,-0.0539 -0.295611,-1.32459 -0.243349,-1.16236 c -0.0115,-0.12604 -0.04628,-0.27922 -0.10435,-0.45954 -0.02311,-0.16216 -0.0695,-0.3514 -0.13918,-0.56773 2.35e-4,-0.18009 -0.04041,-0.30629 -0.121935,-0.37858 l -0.01741,-0.0541 c -0.04645,-0.14428 -0.151209,-0.28868 -0.314266,-0.43321 -0.08153,-0.0723 -0.238894,-0.10883 -0.472105,-0.10965 -0.05831,-2e-4 -0.198255,0.0174 -0.419845,0.0528 -0.08165,0.0177 -0.151565,-0.0185 -0.209747,-0.10873 l -0.139888,-0.0273 v 0 l 0.104689,0.1893 -0.297375,0.0261 c -0.03495,-0.0181 -0.07578,-0.009 -0.122474,0.0266 -0.09338,0.0719 -0.175028,0.0896 -0.244939,0.0533 v 0 l -0.192503,0.0803 -0.24494,0.0533 c -0.08165,0.0177 -0.192505,0.0804 -0.332568,0.18811 l -0.210099,0.16148 -0.140073,0.10765 -0.227696,0.24241 -0.455568,0.61989 c -0.280485,0.48537 -0.374569,1.09739 -0.28225,1.83605 0.02311,0.16216 0.08692,0.40548 0.191443,0.72996 l 0.121935,0.37858 0.03485,0.10826 0.10452,0.23558 v 0 l 0.64454,1.29561 v 0 l 0.2613,0.52525 0.03485,0.0701 0.783901,1.57574 0.05226,0.10501 0.139365,0.28013 0.05226,0.10502 c 0.05807,0.11672 0.116199,0.20429 0.174377,0.26271 0.197662,0.28025 0.448054,0.43235 0.751177,0.45628 l 0.03501,-0.0174 0.01742,0.035 c 0.06979,0.0818 0.163052,0.0937 0.279778,0.0356 l 0.314973,-0.0693 c 0.303123,0.0239 0.524659,0.0302 0.664607,0.0188 l 0.03502,-0.0174 0.01741,0.035 0.122474,-0.0172 c 0.06992,0.0234 0.186521,0.0236 0.349814,6.9e-4 0.03495,0.0117 0.07578,0.006 0.122473,-0.0172 l 0.05243,0.0175 c 0.104873,0.0352 0.203998,0.0296 0.297375,-0.0169 l 0.03501,-0.0174 0.01741,0.035 c 0.04657,0.0351 0.0932,0.041 0.139889,0.0177 0.05831,1.3e-4 0.104936,0.006 0.139888,0.0177 0.04669,-0.0232 0.08751,-0.0289 0.122474,-0.0172 0.116604,2.3e-4 0.221536,0.006 0.314796,0.0182 0.04669,-0.0232 0.08751,-0.029 0.122474,-0.0173 l 0.05244,0.0176 c 0.03507,-0.0466 0.08757,-0.0581 0.157487,-0.0346 0.04657,0.0351 0.0932,0.041 0.139888,0.0177 0.03495,0.0117 0.0583,1.3e-4 0.07003,-0.0348 l 0.03501,-0.0174 0.03485,0.0701 0.05261,-0.0699 c 0.04657,0.0351 0.09901,0.0527 0.15731,0.0528 0.03495,0.0117 0.06997,-0.006 0.105043,-0.0522 l 0.06986,0.0527 c 0.04669,-0.0232 0.07584,-0.0231 0.08746,1.7e-4 l 0.03501,-0.0174 -0.01741,-0.035 0.08746,1.7e-4 0.01741,0.035 0.08746,1.8e-4 0.349812,7.1e-4 0.209922,-0.0171 0.03501,-0.0174 c 0.04657,0.0351 0.104875,0.0353 0.174906,3.5e-4 l 0.08746,1.7e-4 c 0.01161,0.0234 0.05243,0.0177 0.122473,-0.0172 0.01161,0.0233 0.02908,0.0291 0.05243,0.0175 0.10499,-0.0231 0.250745,-0.0228 0.437265,8.9e-4 l 0.559734,-0.0163 0.454685,0.0359 0.297376,-0.0169 c 0.01161,0.0233 0.04076,0.0234 0.08746,1.7e-4 0.02335,-0.0116 0.06998,-0.006 0.139889,0.0177 l 0.08746,1.8e-4 c 0.03495,0.0117 0.06411,0.0118 0.08746,1.7e-4 0.04669,-0.0232 0.08751,-0.0289 0.122474,-0.0172 l 0.192325,0.0354 0.174907,3.6e-4 c 0.03495,0.0117 0.139885,0.0178 0.314796,0.0182 0.03495,0.0117 0.07578,0.006 0.122473,-0.0172 l 0.06986,0.0527 0.105043,-0.0522 c 0.06979,0.0818 0.163053,0.0937 0.27978,0.0356 l 0.05243,0.0176 0.08746,1.7e-4 0.139888,0.0177 0.07003,-0.0348 0.05243,0.0176 0.07003,-0.0348 c 0.02323,0.0467 0.04652,0.0643 0.06986,0.0527 l 1.77e-4,-0.0875 0.06986,0.0527 0.01741,0.0349 0.174906,3.4e-4 c 0.104873,0.0352 0.209805,0.0413 0.314796,0.0182 0.01161,0.0233 0.04076,0.0234 0.08746,1.7e-4 l 0.139889,0.0177 c 0.06992,0.0235 0.116545,0.0294 0.139888,0.0177 0.04669,-0.0232 0.07584,-0.0231 0.08746,1.7e-4 0.03496,0.0117 0.06411,0.0118 0.08746,1.9e-4 l 0.174907,3.5e-4 0.07003,-0.0348 0.104875,0.0353 0.262359,5.4e-4 0.08746,1.7e-4 0.08746,1.9e-4 c 0.02334,-0.0116 0.04082,-0.006 0.05243,0.0176 0.03495,0.0117 0.0583,7e-5 0.07003,-0.0348 l 0.05243,0.0176 c 0.06992,0.0235 0.128218,0.0236 0.174906,3.6e-4 l 0.01741,0.0349 0.437266,8.8e-4 0.297375,-0.0169 0.227343,0.018 c 0.05831,1.1e-4 0.116609,2.3e-4 0.174906,3.5e-4 0.05831,1.1e-4 0.116609,2.3e-4 0.174906,3.5e-4 l 0.174906,3.6e-4 0.174906,3.5e-4 0.174906,3.6e-4 c 0.116604,2.3e-4 0.186578,-0.005 0.209922,-0.0171 l 0.0176,-0.0525 c 0.03495,0.0117 0.05824,0.0293 0.06986,0.0527 0.02335,-0.0116 0.04082,-0.006 0.05243,0.0176 l 0.105043,-0.0522 0.06986,0.0527 0.174906,3.6e-4 0.05261,-0.0699 c 0.02323,0.0467 0.04652,0.0643 0.06986,0.0527 0.151563,0.012 0.244823,0.0239 0.279781,0.0356 l 0.105043,-0.0522 0.01741,0.035 c 0.04669,-0.0232 0.07584,-0.0231 0.08746,1.7e-4 l 0.38483,-0.0168 0.03501,-0.0174 c 0.04657,0.0351 0.116547,0.0294 0.209922,-0.0171 l 0.104874,0.0353 c 0.07003,-0.0348 0.110854,-0.0405 0.122474,-0.0172 l 0.192325,0.0354 0.822095,-0.0159 0.08746,1.7e-4 0.139888,0.0177 c 0.116604,2.3e-4 0.209864,0.0121 0.27978,0.0356 l 0.08746,1.8e-4 c 0.02335,-0.0116 0.09332,-0.0173 0.209922,-0.0171 l 0.08746,1.9e-4 0.402249,0.0183 c 0.06992,0.0235 0.11074,0.0178 0.122473,-0.0172 l 0.104874,0.0353 0.05243,0.0176 0.157486,-0.0346 0.209747,0.0704 0.07003,-0.0348 0.08746,1.9e-4 c 0.03495,0.0117 0.04663,0.006 0.03502,-0.0174 0.02334,-0.0116 0.04668,-0.0232 0.07003,-0.0348 0.02323,0.0467 0.04652,0.0643 0.06986,0.0527 l 0.07003,-0.0348 c 0.09315,0.0701 0.192213,0.0936 0.2972,0.0705 0.10499,-0.0231 0.169157,-0.0404 0.192502,-0.052 l 0.03485,0.0701 0.140074,-0.0698 c 0.03484,0.07 0.0698,0.0818 0.104874,0.0353 l -0.05243,-0.0176 0.0176,-0.0525 0.01741,0.0349 c 0.02334,-0.0116 0.05249,-0.0115 0.08746,1.8e-4 0.03496,0.0117 0.05825,0.0293 0.06986,0.0527 v 0 c 0.01161,0.0233 0.02908,0.0292 0.05243,0.0176 l 0.174906,3.5e-4 -0.01741,-0.0351 0.03502,-0.0174 0.06986,0.0527 0.07003,-0.0348 0.06986,0.0527 c 0.03495,0.0117 0.06411,0.0117 0.08746,1.8e-4 0.04669,-0.0232 0.08751,-0.0289 0.122473,-0.0172 l 0.227342,0.018 0.08746,1.7e-4 0.03502,-0.0174 0.139888,0.0177 c 0.06992,0.0235 0.116546,0.0294 0.139889,0.0177 0.02334,-0.0116 0.05249,-0.0115 0.08746,1.8e-4 0.05831,1.1e-4 0.09913,-0.006 0.122474,-0.0172 0.02334,-0.0116 0.04082,-0.006 0.05244,0.0176 l 0.03501,-0.0174 c 0.03496,0.0117 0.06411,0.0118 0.08746,1.8e-4 l 0.03501,-0.0174 0.05243,0.0176 c 0.06992,0.0235 0.128218,0.0237 0.174906,3.5e-4 v 0 c 0.02334,-0.0116 0.04082,-0.006 0.05244,0.0176 0.03495,0.0117 0.08164,-0.0116 0.140058,-0.0698 0.08153,0.0468 0.133963,0.0644 0.157311,0.0528 0.03495,0.0117 0.07578,0.006 0.122474,-0.0172 0.05831,1.3e-4 0.110743,0.0177 0.15731,0.0528 l 0.03501,-0.0174 0.03502,-0.0174 0.139888,0.0177 c 0.09338,-0.0465 0.163357,-0.0522 0.209924,-0.0171 0.06992,0.0235 0.11074,0.0178 0.122473,-0.0172 0.06992,0.0235 0.128218,0.0236 0.174906,3.5e-4 l 0.05244,0.0176 c 0.174906,3.5e-4 0.274031,-0.005 0.297375,-0.0169 l 0.08746,1.7e-4 c 0.06992,0.0235 0.116546,0.0294 0.139889,0.0177 l 0.926966,0.0194 c 0.06992,0.0234 0.128218,0.0235 0.174907,3.5e-4 l 0.174906,3.5e-4 0.122474,-0.0172 0.262359,5.2e-4 0.174906,3.6e-4 0.227343,0.018 c 0.02335,-0.0116 0.0525,-0.0115 0.08746,1.7e-4 0.03495,0.0117 0.07578,0.006 0.122473,-0.0172 v 0 c 0.08165,-0.0115 0.139951,-0.0113 0.174906,3.5e-4 0.05831,1.3e-4 0.104936,0.006 0.139889,0.0177 0.116604,2.3e-4 0.239073,-0.017 0.367408,-0.0517 0.163293,-0.023 0.349871,-0.0284 0.559735,-0.0163 l 0.03501,-0.0174 0.05261,-0.0699 0.105044,-0.0522 0.06986,0.0527 c 0.116604,2.3e-4 0.19825,-0.0113 0.244938,-0.0345 l 0.05244,0.0176 0.105043,-0.0522 0.06986,0.0527 c 0.03496,0.0117 0.04663,0.006 0.03501,-0.0174 0.02334,-0.0116 0.05249,-0.0115 0.08746,1.7e-4 l 0.05243,0.0175 0.332393,-0.0343 c 0.03495,0.0117 0.07578,0.006 0.122473,-0.0172 l -0.01741,-0.0349 0.03502,-0.0174 c 0.02323,0.0467 0.04651,0.0643 0.06986,0.0527 0.03495,0.0117 0.07578,0.006 0.122474,-0.0172 l 0.104874,0.0353 c 0.02334,-0.0116 0.06416,-0.0173 0.122474,-0.0172 0.06992,0.0235 0.122411,0.012 0.157486,-0.0346 l 0.01741,0.035 c 0.04669,-0.0232 0.07584,-0.0231 0.08746,1.8e-4 0.03496,0.0117 0.07578,0.006 0.122474,-0.0172 0.04669,-0.0232 0.08751,-0.0289 0.122474,-0.0172 l 0.03501,-0.0174 0.08746,1.7e-4 c 0.03495,0.0117 0.08745,1.3e-4 0.157487,-0.0346 l 0.07003,-0.0348 0.03484,0.0701 c 0.07003,-0.0348 0.122525,-0.0463 0.157487,-0.0346 0.03495,0.0117 0.06411,0.0118 0.08746,1.9e-4 0.04669,-0.0232 0.08751,-0.0289 0.122474,-0.0172 l 0.139888,0.0177 c 0.163293,-0.023 0.314914,-0.0402 0.454862,-0.0516 l 0.542315,-0.0514 v 0 l 0.174906,3.5e-4 c 0.221595,-0.0229 0.361543,-0.0343 0.419845,-0.0342 l 0.174906,3.4e-4 c 0.06992,0.0235 0.13989,0.0178 0.209922,-0.0171 0.396619,-0.0808 0.659097,-0.13856 0.787432,-0.17332 l 0.349988,-0.0867 c 0.163293,-0.023 0.291628,-0.0577 0.385005,-0.10409 l 0.210099,-0.10455 0.05244,0.0175 z m -4.872361,-3.73534 0.03502,-0.0174 0.01741,0.035 c 0.04669,-0.0232 0.07584,-0.0231 0.08746,1.8e-4 v 0 c -0.01161,-0.0233 -0.04076,-0.0234 -0.08746,-1.8e-4 l -0.01741,-0.035 -0.03502,0.0174 -0.03501,0.0174 -0.05244,-0.0176 -0.03502,0.0174 v 0 0 0 l 0.03502,-0.0174 0.05244,0.0176 z m -0.332391,0.0343 v 0 l 0.03501,-0.0174 0.01741,0.0349 -0.01741,-0.0349 z m 1.014949,-0.24282 -0.01741,-0.035 0.03501,-0.0174 0.01741,0.035 -0.03501,0.0174 0.01741,0.0349 v 0 0 z m -8.188748,1.54014 -0.122473,0.0172 c 0.04669,-0.0232 0.08751,-0.0289 0.122473,-0.0172 z m -19.83195,-1.2294 0.192325,0.0354 c -0.02334,0.0116 -0.08745,-2e-4 -0.192325,-0.0354 z m -2.18156,-3.33955 c 0.139831,0.0725 0.19209,0.23473 0.156779,0.48674 z m -1.617644,5.18589 c 0.01161,0.0233 0.03483,0.07 0.06967,0.14012 0.03484,0.07 0.0522,0.13417 0.05209,0.1925 l -0.03485,-0.07 c 0.01173,-0.0349 0.006,-0.0757 -0.01725,-0.12242 -0.04657,-0.0351 -0.0698,-0.0818 -0.06967,-0.14012 z m 9.447046,-1.03037 0.01741,0.0349 0.03501,-0.0174 0.01741,0.0349 -0.05243,-0.0176 z m 16.057757,-0.64972 -0.03501,0.0174 z m -16.983488,0.0182 0.03501,-0.0174 z m 17.875439,0.0186 0.03501,-0.0174 v 0 0 z m 3.008419,-0.0108 v 0 l -0.01741,-0.035 v 0 z m 2.632891,4.06316 -0.03501,0.0174 -0.01741,-0.0349 0.03502,-0.0174 z m -17.849192,-4.35622 c 0.01161,0.0233 0.04077,0.0233 0.08746,1.7e-4 z"
       sodipodi:nodetypes="cccccccccsccccccccccccccccccccccccccccccccccccccccccccccccccccccccccccccccscccccccccccccccccccccccccccccccccccccccccccccccccccccccccccccccccccccccccccccccccccccccccccccccccccccccccccccccccccccccccccccccccccccccccscccccccccccccccccccccccccccccccccccccccccccccccccccccccccccccccccccccccccccccccccccccccccccccccccccccccccccccccccccccccccccccccccccccccccccccccccccccccccccccccccccccccccccccccccccccccccccccccccccccccccccccccccccccccccccccccccccc" />
    <path
       inkscape:connector-curvature="0"
       id="path821"
       style="font-style:normal;font-variant:normal;font-weight:normal;font-stretch:normal;font-size:medium;line-height:125%;font-family:Carosello;-inkscape-font-specification:Carosello;letter-spacing:0px;word-spacing:0px;fill:#ffffff;fill-opacity:1;stroke:none;stroke-width:0.69367272px;stroke-linecap:butt;stroke-linejoin:miter;stroke-opacity:1"
       d="m 31.056338,256.00431 v 0.10414 0.31244 2.18704 1.77047 q 0.04258,0.72901 0.04258,2.29119 v 1.35389 0.20829 0.10414 q 0.04258,0.31244 0.04258,0.52073 -0.04258,0.20829 -0.04258,0.31243 0.04258,0.41658 0.04258,1.35389 v 2.49948 l 0.08516,1.66632 v 0.31243 1.35389 q 0.08516,0.20829 0,0.41658 0,0.31243 0.127743,0.31243 l 0.08516,0.10415 0.212904,0.31243 q 0.08516,0.20829 0.170323,0.20829 0.08516,0.20829 0.127742,0.20829 0.04258,0.10415 0.127742,0.10415 v 0 0 l 0.04258,0.10414 0.127742,0.20829 v 0 0 h 0.04258 v 0 0 q 0,0.10415 0.04258,0.10415 0,0 0,-0.10415 v 0 0 0.10415 l 0.08516,0.10414 v 0 0 l 0.08516,0.10415 v -0.10415 0.10415 h 0.04258 v 0 0 q 0.04258,0 0.127742,0.20829 h 0.04258 0.04258 q 0.04258,0.10415 0.127742,0.10415 v 0 0 h 0.04258 v 0 0 0 q 0.04258,0.10414 0.127742,0.10414 l 0.127742,0.10415 v 0 0 l 0.08516,0.10414 q 0.212903,0 0.553549,0.20829 l 0.340646,0.10415 h 0.04258 0.425807 q 0.170323,0 0.255485,-0.10415 0.510968,-0.10414 0.979357,-0.93731 l 0.170323,-0.20829 q 0.08516,-0.20829 0.08516,-0.20829 0.255484,-0.62487 0.383227,-1.35388 v -0.10415 -0.10414 0 0.10414 l 0.04258,-0.20829 q 0.04258,-0.10414 0.04258,-0.20829 0,-0.10414 0.04258,-0.10414 0,-0.20829 0.04258,-0.20829 v -0.20829 q -0.08516,-0.41658 -0.08516,-0.72902 0,-0.31243 -0.04258,-0.52072 v -0.41658 q -0.08516,-0.20829 -0.08516,-0.20829 v -0.10415 l -0.212904,-2.49948 -0.510969,-4.99896 -0.170323,-1.87461 -0.08516,-0.62487 -0.127742,-1.1456 -0.255485,-1.87461 q -0.08516,-0.41658 -0.08516,-0.62487 l -0.08516,-0.31243 v 0 q 0.04258,-0.10415 0,-0.10415 -0.04258,-0.10414 0,-0.20829 l -0.08516,-0.31243 v 0 q 0,0 0.04258,0 0,-0.10415 -0.04258,-0.10415 -0.04258,0 -0.04258,-0.20829 0,-0.10414 0,-0.10414 l -0.04258,-0.10415 v -0.10414 q -0.04258,-0.10415 0,-0.10415 0,-0.10414 -0.04258,-0.10414 0,-0.10415 -0.04258,-0.10415 l 0.04258,-0.20829 h -0.04258 v -0.10414 h -0.04258 q 0.04258,-0.10415 0,-0.20829 v 0 0 0 0 l -0.04258,-0.31244 v 0 0 0 q 0,0 0,0 -0.04258,0 -0.04258,-0.10414 0,-0.31244 -0.04258,-0.31244 v 0 h -0.04258 0.04258 l -0.04258,-0.20829 h -0.04258 v 0 h 0.04258 l -0.04258,-0.20829 v 0 -0.10414 h -0.04258 q 0,0 0.04258,0 0,-0.10415 -0.04258,-0.10415 v 0 0 0 q -0.04258,-0.10414 -0.04258,-0.31243 h -0.04258 v 0 0 0 h 0.04258 q -0.08516,-0.20829 -0.08516,-0.20829 v 0 0 0 -0.20829 l -0.04258,0.10414 v 0 0 -0.20829 0 h -0.04258 q 0,-0.31243 -0.08516,-0.31243 0.04258,-0.10415 0,-0.10415 -0.04258,-0.10414 -0.04258,-0.20829 -0.08516,-0.20829 -0.08516,-0.20829 l -0.170322,-0.52072 -0.212904,-0.41658 v 0 0 0 0 q 0,-0.10415 -0.04258,-0.10415 v 0 l -0.127742,-0.31243 h -0.08516 q 0,0 0,0 0,-0.10415 0.04258,-0.10415 -0.04258,0 -0.04258,-0.10414 v 0 0 q -0.04258,0.10414 -0.04258,0.10414 v 0 0 0 l -0.04258,-0.20829 h -0.04258 -0.08516 v -0.10414 h -0.04258 v -0.10415 0 0 h -0.08516 q 0,-0.10415 0.04258,-0.10415 H 32.88731 v 0 0 -0.10414 h -0.04258 v 0 0 h -0.04258 v -0.10415 h -0.04258 v 0 q -0.04258,-0.10414 -0.127742,-0.10414 0,-0.10415 0,-0.10415 -0.04258,0 -0.04258,0 0,0.10415 0,0.10415 -0.04258,-0.10415 -0.04258,0 v -0.10415 h 0.04258 -0.04258 l -0.127742,-0.10414 q -0.08516,0 -0.127742,-0.10415 v 0.10415 h -0.04258 v 0 -0.10415 q 0,0.10415 -0.04258,0.10415 0,-0.10415 -0.127742,-0.10415 l 0.04258,0.10415 q -0.08516,0 -0.04258,0.10414 0,-0.10414 0,-0.10414 -0.04258,0 -0.04258,0 v -0.10415 l -0.08516,0.10415 v -0.10415 0.10415 0 0 0 q -0.08516,0 -0.127742,0.10414 0,-0.10414 0.04258,-0.10414 0,0 0,0 H 31.8228 l -0.255485,0.20829 q 0,0 -0.08516,0.20829 v 0 q -0.04258,0 -0.04258,0.10414 0,0 0,0 l -0.08516,0.10415 -0.127743,0.52073 q -0.127742,0.31243 -0.127742,0.72901 -0.04258,0.20829 -0.04258,0.72902 v 0.72901 0.10415 0.31243 0.52073 0.83316 0.62487 0.62487 0.20829 0.83316 0.10414 0.20829 z m 1.064519,-7.81088 z m 0.851615,0.72902 v 0 0 0 -0.10415 z m -1.830972,6.45699 h 0.04258 v 0 0 0 z m -0.04258,-4.79067 z m 0,1.14559 v 0 -0.10414 z m 0.127742,3.12435 z m 0,9.78964 z m -0.04258,-9.06062 z m 2.256779,-6.04041 z m -2.29936,9.99792 z m 3.406459,-6.35285 v 0 0 h -0.04258 z m -0.04258,-0.10414 z m 1.14968,8.85233 z m 0.08516,0.9373 z m -3.661943,-14.47616 v 0 q 0,0 0,0 -0.04258,0 -0.04258,-0.10415 v 0 q 0.04258,0 0.04258,0.10415 0,0 0,0 z m 0.468388,26.1404 v 0 q 0,0 0,0.10415 0,0 0.04258,0 h -0.04258 z m -1.277422,-9.58134 v 0 0.10415 0 0 z m 0,-14.05958 q -0.04258,-0.10414 0,-0.10414 0,0 0,0 v -0.10415 -0.10414 z m 0.59613,-2.60363 v 0 h -0.04258 v 0 z m -0.681291,1.97876 v 0 q 0,0 0,0.10415 0,0 -0.04258,0 v -0.10415 z m -0.04258,4.58238 v 0 h 0.04258 v 0 z m 0.08516,-0.10414 z m 1.277422,-6.35285 q 0,0 0,0 -0.04258,0 -0.04258,-0.10415 v 0 q 0.04258,0 0.04258,0.10415 z m -1.277422,2.29119 v -0.10414 0 0 z m 0.936777,-2.49948 v 0 0 h -0.04258 z m 0.383226,0.20829 z m -0.127742,-0.10415 v 0 0.10415 0 z m 0,26.14041 v 0 h 0.04258 v 0 z m 0,-26.14041 h 0.04258 q 0,0 0,0.10415 0,0 -0.04258,0 z m -0.809034,2.60363 z m 1.021938,-2.49948 v 0 h -0.04258 v 0 z m 2.852909,12.18497 z m -4.385816,-2.0829 z m 2.682587,-8.22746 h 0.04258 v 0.10415 h -0.04258 z m -1.745811,-1.97876 h -0.04258 v 0 z m 1.70323,1.97876 v 0 0 h -0.04258 z m -0.127742,-0.31243 v -0.10415 z m -2.341941,15.10103 v 0 0.10414 z m -0.04258,-10.10207 z m 0,-4.79067 h -0.04258 v 0 z m 0,5.83212 v 0 h -0.04258 z m 4.470978,6.2487 q 0,0 0,0.10415 0,0 -0.04258,-0.10415 v 0 z m -4.428397,2.39534 z M 31.1415,251.21364 v 0.10414 z m 1.660649,-2.39534 h -0.04258 z m 0.979357,1.56218 z m -0.510969,-1.04145 v 0 0.10414 0 z m -2.043876,6.14455 z m 4.300655,5.3114 z m -2.597425,-11.87253 z m 2.597425,11.76838 z m -2.938071,13.95544 z m -1.362584,-24.16165 z m 4.04517,11.66425 z m -2.852909,12.39325 v 0 -0.10414 0 z m 1.873552,-22.39118 v 0.10415 z m -3.108393,4.68653 h 0.04258 v 0.10414 h -0.04258 z m -0.04258,-4.99896 z m 0.08516,5.31139 v 0 h -0.04258 z m -0.04258,-7.39429 z m 4.385815,11.3518 z m 0.894196,11.5601 z M 33.696344,250.9012 Z m -0.340646,-1.35388 z m 2.341941,13.12227 z m -1.362584,-10.31036 z m 1.405164,10.6228 z m -4.513558,4.68652 z m 0,-12.39326 z m 0,-1.04145 z m 1.575488,-5.51969 z m 0.04258,26.24456 z m 0.04258,-26.14041 z m 0.08516,0 z m -0.638711,-0.41658 z m 0.08516,0.31243 z m -0.55355,-0.52072 h 0.04258 v 0 z m 1.234842,0.83316 q 0,-0.10414 0.04258,-0.10414 0,0 0,0 v 0 h -0.04258 z m 1.14968,2.81192 z m 0.638711,3.33264 v 0 h -0.04258 z m -0.08516,-0.52073 z m -0.08516,-0.52072 z m -0.255485,-1.35389 z m -1.362583,-3.85336 z m 1.107099,2.60362 z m 0.766453,4.26995 h -0.04258 v 0 z m -0.59613,-3.33264 z m -1.873553,22.18289 z m -1.234841,-23.84921 v 0 0.10414 z" />
    <path
       inkscape:connector-curvature="0"
       id="path823"
       style="font-style:normal;font-variant:normal;font-weight:normal;font-stretch:normal;font-size:medium;line-height:125%;font-family:Carosello;-inkscape-font-specification:Carosello;letter-spacing:0px;word-spacing:0px;fill:#ffffff;fill-opacity:1;stroke:none;stroke-width:0.52646488px;stroke-linecap:butt;stroke-linejoin:miter;stroke-opacity:1"
       d="m 28.153294,250.68345 0.05093,0.004 z m 8.646968,0.42735 q 0.05095,0.004 0.0545,-0.0464 l -0.05095,-0.004 z m -0.116522,0.19278 0.05095,0.004 z m 0.105276,-0.0427 -0.0038,0.05 z m -0.05093,-0.004 -0.0038,0.05 z m -0.998032,-4.39887 -0.05096,-0.004 z m -9.0378,6.8386 -0.05093,-0.004 0.04328,0.10369 z m 8.19125,-7.80565 -0.05095,-0.004 z m 2.94419,3.63483 -0.05095,-0.004 z m -0.191871,-0.16493 0.05093,0.004 z m -1.941566,-2.70673 -0.0038,0.05 v 0 z m 0.79577,0.96334 v 0 l 0.05096,0.004 v 0 z m -1.132476,-1.23935 0.05093,0.004 z m 2.379824,2.99013 -0.0038,0.05 z m -1.952803,-2.55663 0.05094,0.004 z m 0.04703,0.0537 0.05093,0.004 v 0 z m -0.329214,-0.37607 0.05096,0.004 z m 3.109839,4.14993 v 0 l 0.0038,-0.05 z m -0.04332,-0.10389 -0.0038,0.05 v 0 l 0.05095,0.004 z m -3.074046,-3.9461 0.05096,0.004 0.0038,-0.05 -0.0545,0.0464 0.0038,-0.05 -0.0038,0.05 0.0038,-0.05 q -0.05093,-0.004 -0.0038,0.05 0,0 -0.05093,-0.004 z m -4.964442,0.84641 -0.05096,-0.004 z m -1.497916,2.95977 0.0038,-0.05 z m -1.205291,0.41555 -0.0038,0.05 z m 0.716692,0.65577 0.05095,0.004 v 0 z m -0.521081,-0.54095 -0.05095,-0.004 z m 9.278765,0.17145 -0.05095,-0.004 z m 0.178541,-0.33918 0.05095,0.004 z m -1.229881,0.0614 0.0038,-0.05 z m 0.383737,0.32973 0.0038,-0.05 z m 0.04662,-1.30456 0.05096,0.004 z m -8.890865,1.46653 v 0 l 0.05093,0.004 v 0 z m 11.33312,2.73549 0.0038,-0.05 z m -10.943974,-3.15994 v 0 l 0.0038,-0.05 v 0 z m -0.832817,0.89527 v 0 l 0.0038,-0.05 z m 0.47364,-0.87107 0.0038,-0.05 v 0 z m 0.250132,0.0685 v 0 l 0.05095,0.004 z m 0.268856,-0.18172 v 0 l 0.05093,0.004 z m -0.680491,0.90635 0.05095,0.004 z m 10.487415,-1.65232 v 0 l 0.05095,0.004 z m -10.239358,1.06668 0.05093,0.004 z m -0.137348,-0.21121 v 0 l 0.05095,0.004 z m 1.753874,-2.28718 0.05095,0.004 z m -0.16898,0.89322 -0.05093,-0.004 v 0 z m 6.806956,-2.27201 v 0 l -0.0038,0.05 z m -7.190277,3.30057 v 0 l 0.05093,0.004 z m 7.749646,-0.54338 0.05093,0.004 v 0 l -0.0038,0.05 z m 0.438261,0.28338 -0.05096,-0.004 v 0 z m -8.345649,1.00312 -0.05095,-0.004 z m 10.015855,-0.1272 -0.05094,-0.004 z m -10.207722,-0.0377 0.0545,-0.0464 -0.0038,0.05 v 0 z m 7.628111,1.76186 v 0 l 0.0038,-0.05 v 0 z m 3.708758,0.9236 v 0 l -0.05093,-0.004 z m -12.093102,-3.49503 0.05093,0.004 -0.0038,0.05 z m 7.19944,-4.10478 0.0038,-0.05 z m -0.0096,5.58327 v 0 l -0.05093,-0.004 z m 1.35474,-3.77509 -0.0038,0.05 z m 1.718891,6.36289 0.0038,-0.05 z m -0.861054,-5.54643 v 0 l -0.05096,-0.004 z m -1.352647,-1.70812 0.0038,-0.05 z m -8.412249,4.62029 0.0038,-0.05 v 0 z m 10.126153,-2.28224 0.0038,-0.05 v 0 z m -7.317212,0.22268 -0.04703,-0.0537 0.05096,0.004 z m -1.261506,1.16595 v 0 l -0.05096,-0.004 v 0 z m 8.535846,-0.13412 0.05096,0.004 z m -9.366995,0.3252 -0.05096,-0.004 z m 6.986756,-4.67362 v 0 l 0.05095,0.004 z m 3.536018,8.00415 0.0038,-0.05 z m -1.715985,-2.99218 -0.0038,0.05 v 0 z m -9.007819,0.30101 -0.0038,0.05 z m -2.052705,2.86913 v 0 l -0.05093,-0.004 z m 9.569706,-7.80603 0.0038,-0.05 0.05093,0.004 z m 3.196407,4.35744 0.0038,-0.05 v 0 z m -2.61915,1.57031 v 0 l -0.05095,-0.004 z m 2.735686,-1.76306 q -0.05093,-0.004 -0.0545,0.0464 l 0.0038,-0.05 z m -11.305661,0.98917 q 0.05096,0.004 0.04703,0.0537 0,0 0,0 v 0 z m 0.01383,1.86232 0.0038,-0.05 0.05093,0.004 z m 1.323107,-2.67067 v 0 l -0.05093,-0.004 0.0038,-0.05 z m -2.379841,3.1472 v 0 l -0.0038,0.05 v 0 z m 0.206027,-2.75184 v 0 q 0.05093,0.004 0.04703,0.0537 l -0.05093,-0.004 z m 12.665797,0.61888 v 0 l -0.05094,-0.004 q 0.0038,-0.05 0.0545,-0.0464 0,0 0,0 z m -6.81734,-7.13596 v 0 q 0.05096,0.004 0.04703,0.0537 l -0.05096,-0.004 z m 2.266622,1.77457 v 0 l 0.05093,0.004 v 0 z m 1.897028,4.66542 -0.04703,-0.0537 0.05096,0.004 v 0 z m 0.31507,-2.84454 v 0 l 0.0038,-0.05 z m -1.059226,-1.53586 -0.0038,0.05 v 0 z m -1.710998,1.03266 v 0 l -0.0038,0.05 v 0 z m 4.507432,5.25764 v 0 l -0.0038,0.05 v 0 z m -1.228618,-2.00094 v 0 l -0.04702,-0.0537 0.05093,0.004 z m -2.927541,-4.53913 v 0 l -0.05093,-0.004 z m 4.336378,5.49676 v 0 l -0.05093,-0.004 z m -5.359809,-6.8288 v 0 l 0.05096,0.004 z m 5.771847,7.46242 -0.05096,-0.004 q 0,0 0,0 0.0038,-0.05 0.0545,-0.0464 v 0 z m -11.441754,-1.2845 q -0.05093,-0.004 -0.04703,-0.0537 v 0 l 0.05093,0.004 z m -0.806184,1.90334 v 0 l 0.0038,-0.05 z m 7.751739,-6.0266 v 0 l -0.0038,0.05 z m -7.05252,4.87007 q 0.05095,0.004 0.0545,-0.0464 l -0.0038,0.05 z m 3.795339,-5.00624 v 0 l -0.05094,-0.004 z m 7.663065,5.38644 -0.0038,0.05 z m -0.650523,0.50609 v 0 l 0.0545,-0.0464 -0.0038,0.05 z M 27.031115,252.7137 q 0,0 0,0 -0.05095,-0.004 -0.04703,-0.0537 l 0.05096,0.004 z m 0.43618,-0.37074 v 0 l 0.0038,-0.05 v 0 z m 8.750614,-5.04847 v 0 l -0.05095,-0.004 z m 2.685309,5.72886 -0.05095,-0.004 z M 27.406947,251.7852 v 0 l -0.0038,0.05 v 0 z m 11.594081,1.29557 -0.0038,0.05 q -0.05095,-0.004 -0.05095,-0.004 0.0038,-0.05 0.0038,-0.05 v 0 z m -10.351307,-2.21136 q 0,0 0,0 0.0038,-0.05 -0.04703,-0.0537 l 0.05096,0.004 z m 10.744614,3.09515 v 0 l -0.0038,0.05 z m -2.088071,-2.11372 q -0.0038,0.05 -0.0038,0.05 -0.05093,-0.004 -0.05093,-0.004 l 0.0038,-0.05 z m -2.61914,-4.56702 v 0 l 0.0038,-0.05 v 0 z m -8.481335,6.22509 v 0 l -0.05096,-0.004 v 0 z m 8.4701,-6.07497 v 0 l 0.05096,0.004 z m -0.237223,-0.92277 v 0 l 0.05096,0.004 z m 4.09789,6.63644 v 0 l 0.0038,-0.05 z m -11.108379,0.39983 v 0 l -0.05093,-0.004 z m -1.041734,0.27651 -0.0038,0.05 v 0 z m 12.763193,-0.68201 v 0 l 0.05093,0.004 v 0 z m -11.272362,-0.81943 q 0.0038,-0.05 -0.04703,-0.0537 l 0.05093,0.004 z m 4.16576,-5.1805 v 0 l 0.0038,-0.05 z m -4.042143,3.52941 v 0 l 0.0038,-0.05 z m -1.13165,1.47722 v 0 l 0.0038,-0.05 z m -0.548556,1.87176 q -0.05093,-0.004 -0.05093,-0.004 0.0038,-0.05 0.0038,-0.05 l 0.05093,0.004 z m -0.780361,0.19495 v 0 l -0.05096,-0.004 z m 11.922065,-2.40318 -0.0038,0.05 q 0.0038,-0.05 0.0038,-0.05 -0.05095,-0.004 -0.05095,-0.004 v 0 z m -10.118662,2.18218 v 0 l -0.05095,-0.004 v 0 z m -0.775376,-1.91769 v 0 l -0.05095,-0.004 z m 10.803719,-0.422 v 0 l 0.05094,0.004 z m 1.843347,1.29104 q 0,0 -0.0038,0.05 0,0 -0.05094,-0.004 l 0.0038,-0.05 v 0 z m -1.901614,-1.19465 v 0 l 0.05096,0.004 z m -10.0966,0.52368 q 0,0 -0.0038,0.05 0,0 0.05096,0.004 l -0.05096,-0.004 z m 11.632796,-1.26721 q 0,0 -0.0038,0.05 0,0 -0.05093,-0.004 l 0.0038,-0.05 z m -7.438736,-3.60941 v 0 q -0.0038,0.05 0.04703,0.0537 0,0 0,0 l -0.05096,-0.004 z m -0.01864,0.25015 v 0 l 0.0038,-0.05 z m -3.814481,3.89813 v 0 l -0.05093,-0.004 v 0 z m 11.054272,1.00479 q 0.05093,0.004 0.04702,0.0537 0,0 0,0 v 0 l -0.05093,-0.004 z m -10.948561,0.31083 -0.05093,-0.004 q 0,0 0.05093,0.004 0,0 0.0038,-0.05 v 0 z m -1.065888,1.28079 q -0.0038,0.05 -0.0038,0.05 -0.05095,-0.004 -0.05095,-0.004 v 0 l 0.0038,-0.05 z m 7.469141,-7.70722 q -0.05095,-0.004 -0.05095,-0.004 0.0038,-0.05 0.0038,-0.05 l 0.05095,0.004 z m -6.017851,6.052 q 0,0 0,0 0.0038,-0.05 -0.04703,-0.0537 l 0.05093,0.004 z m 8.721892,-0.5733 v 0 l 0.05094,0.004 v 0 z m -9.116863,0.39368 q 0,0 -0.0038,0.05 0,0 0.05093,0.004 l -0.05093,-0.004 z m 11.467973,0.93426 0.0038,-0.05 0.05093,0.004 z m -12.597547,1.19708 -0.0038,0.05 -0.05095,-0.004 v 0 z m 10.551934,-5.92363 0.0038,-0.05 0.05093,0.004 -0.0038,0.05 z m 0.578092,2.50702 -0.0038,0.05 -0.05094,-0.004 0.0038,-0.05 z M 34.055469,247.54 v 0 q 0.0038,-0.05 -0.04702,-0.0537 l 0.05093,0.004 z m 3.662554,3.58644 v 0 l -0.0545,0.0464 0.0038,-0.05 z m -10.352146,1.20941 -0.05096,-0.004 0.0038,-0.05 0.05095,0.004 z m -0.786202,-0.4093 -0.05095,-0.004 0.0038,-0.05 v 0 z m 0.143261,0.81527 q 0.05093,0.004 0.04703,0.0537 0,0 0,0 v 0 l -0.05093,-0.004 z m -0.264704,1.48996 v 0 l -0.0038,0.05 v 0 l -0.05095,-0.004 z m -1.030533,0.12622 v 0 l 0.0038,-0.05 0.04703,0.0537 z m 13.635553,-1.42346 -0.05096,-0.004 0.0545,-0.0464 v 0 z m -12.354904,1.36564 v 0 l 0.05093,0.004 z m 9.934284,-2.44711 v 0 l -0.05094,-0.004 z m 0.795358,-0.39494 v 0 l 0.05095,0.004 z m -6.293765,-4.5826 q 0.0038,-0.05 0.0545,-0.0464 v 0 z m -0.270947,-0.47246 v 0 l 0.0038,-0.05 z m 8.120467,6.77796 -0.05095,-0.004 v 0 z m -1.792573,-1.28737 v 0 l 0.0038,-0.05 z m 0.784122,-0.24484 q -0.05094,-0.004 -0.04703,-0.0537 v 0 z m -2.903399,-5.54349 v 0 l 0.05094,0.004 v 0 z m -8.39685,5.77846 0.0545,-0.0464 -0.0038,0.05 v 0 z m -0.464066,1.42513 v 0 l 0.0038,-0.05 z m 5.641608,-6.4818 -0.05096,-0.004 q 0.05096,0.004 0.05096,0.004 0.0038,-0.05 0.0038,-0.05 v 0 z m -5.110958,7.5768 q -0.0038,0.05 -0.0038,0.05 -0.05093,-0.004 -0.05093,-0.004 v 0 q 0,0 0,0 0.0038,-0.05 0.0545,-0.0464 z m 0.469479,-2.17934 v 0 l -0.05093,-0.004 z m 6.99217,-5.42782 q -0.0038,0.05 0.04703,0.0537 l -0.05095,-0.004 v 0 z m -7.078741,5.22031 v 0 l 0.0038,-0.05 z m 9.394062,-4.09617 v 0 q -0.0038,0.05 -0.0038,0.05 -0.05094,-0.004 -0.05094,-0.004 v 0 z m -10.038345,6.56463 -0.05093,-0.004 v 0 z m 0.458654,-0.67094 v 0 l -0.0038,0.05 q 0,0 0,0 0.0038,-0.05 -0.04703,-0.0537 z m 12.097686,0.0243 -0.05095,-0.004 0.0038,-0.05 z m -12.158446,-1.94026 0.0038,-0.05 z m 12.440215,0.90432 q 0.0038,-0.05 0.0545,-0.0464 v 0 q -0.0038,0.05 -0.0545,0.0464 z m -2.29076,-0.77017 v 0 l 0.05095,0.004 v 0 z m -5.500076,-4.2734 0.0038,-0.05 0.05093,0.004 -0.0038,0.05 z m 3.326687,-0.11022 v 0 l 0.0038,-0.05 v 0 z m -3.623851,-0.0119 v 0 l 0.05094,0.004 0.05095,0.004 z m 0.229325,-0.33548 q -0.0038,0.05 -0.05095,-0.004 z m -4.803375,4.83234 q -0.05093,-0.004 -0.0545,0.0464 0,0 0,0 l -0.05094,-0.004 0.0545,-0.0464 z m 12.60961,1.36941 -0.05093,-0.004 0.0545,-0.0464 v 0 z m -1.478756,-2.06943 q 0.0038,-0.05 0.0038,-0.05 -0.05095,-0.004 -0.05095,-0.004 v 0 l 0.05095,0.004 z m -4.260631,-3.78086 -0.05093,-0.004 v 0 z m -7.706373,6.78449 v 0 q 0,0 -0.0038,0.05 0,0 -0.05095,-0.004 v 0 z m 1.191585,-2.27776 -0.05094,-0.004 0.0038,-0.05 0.05093,0.004 z m 5.163811,-6.91898 q -0.05095,-0.004 -0.0545,0.0464 0,0 0,0 0,0 0,0 -0.05093,-0.004 -0.04703,-0.0537 l 0.05094,0.004 z m -4.330581,7.38199 v 0 l 0.0038,-0.05 v 0 z m 6.930157,-5.2814 -0.05094,-0.004 0.0038,-0.05 z m 0.253894,0.0178 v 0 l -0.0038,0.05 v 0 z m -3.475269,0.0492 0.05093,0.004 -0.0545,0.0464 z m -4.792138,4.68222 0.0038,-0.05 0.05094,0.004 -0.0038,0.05 z m 0.09574,-0.59672 q -0.05093,-0.004 -0.04703,-0.0537 z m -0.236818,0.43555 q 0.0038,-0.05 0.0038,-0.05 -0.05093,-0.004 -0.05093,-0.004 l 0.0038,-0.05 0.04703,0.0537 z m 10.566903,0.0138 q 0.0545,-0.0464 0.05095,0.004 z m 0.161483,-0.79318 v 0 l -0.0038,0.05 v 0 z m 0.327135,-0.27804 q -0.0038,0.05 0.04702,0.0537 0,0 0,0 0,0 0,0 -0.05095,-0.004 -0.0545,0.0464 v 0 z m -5.380203,-5.87447 q -0.05096,-0.004 -0.04703,-0.0537 z m 5.958299,8.38147 q 0,0 -0.0038,0.05 0,0 -0.04703,-0.0537 z m -0.752897,-2.21788 q -0.0545,0.0464 -0.101528,-0.008 z m -0.04119,0.55039 -0.0038,0.05 -0.09782,-0.0575 0.05093,0.004 z m -5.008123,-6.75293 -0.0038,0.05 -0.09782,-0.0575 v 0 z m -6.372458,8.74275 -0.04328,-0.1037 -0.0038,0.05 z m 1.030099,-1.48461 q 0.04703,0.0537 -0.0074,0.10014 z m 9.690385,-0.55323 v 0 l 0.05093,0.004 z m -10.049572,0.57748 q 0.05093,0.004 0.0545,-0.0464 l 0.05095,0.004 -0.05825,0.0964 q -0.05093,-0.004 -0.04703,-0.0537 z m 0.648851,0.19807 v 0 l 0.0074,-0.10015 v 0 z m 11.699382,1.25291 v 0 l 0.05093,0.004 z m -0.235147,-0.26862 q 0,0 0.101528,0.008 l -0.05095,-0.004 z m -11.767219,-1.71061 q 0.04703,0.0537 -0.0074,0.10014 z m 9.965075,-0.13075 q 0.04702,0.0537 -0.0545,0.0464 0.05094,0.004 0.05094,0.004 0.0038,-0.05 0.0038,-0.05 z m -10.083277,1.02774 v 0 l -0.04703,-0.0537 0.05093,0.004 z m -0.787455,1.65315 q -0.0038,0.05 -0.0545,0.0464 z m 1.242361,-2.27407 q -0.0545,0.0464 -0.05093,-0.004 z m 9.25421,-0.1825 q 0.0545,-0.0464 0.05094,0.004 z m -4.558625,-6.61963 q 0.0038,-0.05 0.0038,-0.05 -0.05093,-0.004 -0.05093,-0.004 0.05093,0.004 0.05093,0.004 0.0038,-0.05 0.0038,-0.05 v 0 z m 5.673624,6.04671 q 0.0038,-0.05 0.0038,-0.05 -0.05096,-0.004 -0.05096,-0.004 v 0 l 0.101528,0.008 q -0.05093,-0.004 -0.0545,0.0464 z m -10.510298,0.59423 q 0,0 0,0 -0.05095,-0.004 -0.04703,-0.0537 0.05095,0.004 0.04703,0.0537 0,0 0,0 z m 1.017608,0.72795 q 0,0 0.101528,0.008 l -0.0038,0.05 v 0 z m 10.788736,-0.22185 -0.05096,-0.004 q 0,0 0,0 -0.05093,-0.004 -0.04702,-0.0537 v 0 z m -11.313567,-0.26906 q 0.05096,0.004 0.04703,0.0537 -0.05095,-0.004 0,0 0.0038,-0.05 -0.04703,-0.0537 z m 0.26345,0.57253 -0.05093,-0.004 0.0074,-0.10015 0.05093,0.004 z m -1.209475,-0.89282 q -0.0545,0.0464 -0.04703,-0.0537 -0.0038,0.05 0.04703,0.0537 0,0 0,0 z m 5.914216,-6.71353 q -0.05093,-0.004 -0.04702,-0.0537 z m -5.773125,6.8747 q -0.05096,-0.004 -0.0545,0.0464 0,0 0,0 l -0.04703,-0.0537 z m 1.267744,0.79645 q -0.0074,0.10014 -0.0545,0.0464 z m -2.118878,1.70729 q -0.0074,0.10014 -0.0545,0.0464 l 0.0038,-0.05 z m 12.883475,-0.92478 q 0.101528,0.008 0.04703,0.0537 0,0 0,0 -0.05093,-0.004 -0.04703,-0.0537 z m -5.896288,-8.52789 0.0074,-0.10014 0.09782,0.0575 v 0 z m 6.313325,7.04903 q -0.0545,0.0464 -0.0038,0.05 0.05094,0.004 0.04703,0.0537 -0.04703,-0.0537 -0.04703,-0.0537 -0.04702,-0.0537 0.0038,-0.05 z m -12.098943,2.03823 v 0 l -0.0074,0.10014 -0.05095,-0.004 z m -0.248885,-2.13094 0.0038,-0.05 0.05093,0.004 q 0,0 0.05095,0.004 z m 9.515994,1.09419 q -0.0038,0.05 0.04703,0.0537 0,0 0,0 l -0.0038,0.05 -0.0978,-0.0575 z m 2.776051,1.10731 q 0.05827,-0.0964 0.109065,-0.0926 z m -2.537565,-2.24699 v 0 q 0.0038,-0.05 0.0038,-0.05 -0.05093,-0.004 -0.05093,-0.004 0.0038,-0.05 0.0545,-0.0464 0,0 0,0 z m 0.479479,-0.26691 q 0.0545,-0.0464 0.101528,0.008 0,0 0.05096,0.004 v 0 z m -9.810666,0.79602 0.01122,-0.15011 q -0.0038,0.05 0.04703,0.0537 0,0 0,0 z m -1.022609,1.38452 q -0.0038,0.05 0.04702,0.0537 0.05093,0.004 0.05093,0.004 v 0 q 0,0 -0.0038,0.05 -0.05093,-0.004 -0.04703,-0.0537 -0.05095,-0.004 -0.04702,-0.0537 z m 10.662223,-1.9414 0.01123,-0.15012 q 0,0 0.09405,0.10745 z m -9.882257,0.38834 q 0,0 0,0 0.0038,-0.05 -0.04703,-0.0537 l 0.105297,-0.0427 z m -0.575603,-0.49461 v 0 l -0.105277,0.0427 0.0038,-0.05 z m 0.362945,-0.0741 v 0 q -0.109065,0.0926 -0.15601,0.0393 z m 9.856036,-0.0381 v 0 l 0.105297,-0.0427 -0.0074,0.10014 z m -9.566363,0.26039 v 0 q -0.0038,0.05 0.04703,0.0537 0.0545,-0.0464 0.05093,0.004 -0.109065,0.0926 -0.109065,0.0926 z m 0.869028,0.66686 q 0.05093,0.004 0.0978,0.0575 0,0 0,0 -0.105297,0.0427 -0.152322,-0.0118 l 0.05095,0.004 z m 10.993921,0.44704 q 0,0 0.05095,0.004 0,0 0.0038,-0.05 l 0.04328,0.1037 z m -11.56578,-0.99166 0.141077,0.16118 q -0.101528,-0.008 -0.09405,-0.10745 -0.0038,0.05 -0.0038,0.05 -0.05095,-0.004 -0.05095,-0.004 z m 9.491026,-0.61803 0.15984,-0.0889 v 0 l -0.05827,0.0964 0.0038,-0.05 -0.0038,0.05 z m -10.425808,0.14755 q 0.101528,0.008 0.148554,0.061 0.05095,0.004 0.04703,0.0537 l 0.0545,-0.0464 -0.0038,0.05 -0.101528,-0.008 q -0.04328,-0.1037 -0.148594,-0.0612 z m 5.289916,-6.55769 q 0.05093,0.004 0.04703,0.0537 l 0.0038,-0.05 q 0.05095,0.004 0.101528,0.008 0.0038,-0.05 0.05095,0.004 -0.05095,-0.004 -0.159839,0.0889 z m -4.413402,7.12445 v 0 l -0.0038,0.05 q -0.05095,-0.004 -0.0545,0.0464 0,0 0,0 -0.0074,0.10015 0.101528,0.008 v 0 l -0.0038,0.05 0.105277,-0.0427 v 0 l -0.0545,0.0464 v 0 l -0.253894,-0.0178 z m -0.156011,0.0393 -0.0978,-0.0575 q 0.05094,0.004 0.0978,0.0575 0,0 0.0545,-0.0464 l -0.03572,-0.20383 -0.05093,-0.004 q 0.05825,-0.0964 0.152322,0.0119 -0.0545,0.0464 -0.01503,0.20006 z m 9.632115,-0.45686 q 0.109065,-0.0926 0.112773,-0.1428 l -0.20311,-0.0138 q 0,0 -0.0038,0.05 0,0 -0.05094,-0.004 v 0 q 0.0074,-0.10014 0.06204,-0.14636 0.04328,0.1037 0.199367,0.0648 l -0.01123,0.15011 z m -10.165688,2.12848 q -0.0978,-0.0575 -0.105276,0.0427 v 0 q -0.05094,-0.004 -0.04703,-0.0537 -0.109065,0.0926 -0.09782,-0.0575 0,0 0,0 0.0038,-0.05 -0.04703,-0.0537 l -0.0038,0.05 -0.0978,-0.0575 q -0.0038,0.05 -0.0545,0.0464 l -0.05093,-0.004 q 0.05827,-0.0964 0.01122,-0.15011 -0.05096,-0.004 0.0038,-0.05 l -0.0038,0.05 0.05093,0.004 0.05825,-0.0964 q 0.0545,-0.0464 0.156011,-0.0393 l -0.0074,0.10014 q 0.0545,-0.0464 0.09782,0.0575 l -0.04703,-0.0537 -0.0038,0.05 0.09782,0.0575 -0.05093,-0.004 0.05093,0.004 q -0.0074,0.10014 -0.0074,0.10014 l 0.05827,-0.0964 0.05093,0.004 -0.05825,0.0964 q 0,0 0.05093,0.004 0,0 -0.0038,0.05 z m 12.695766,0.21861 q 0.0038,-0.05 0.0545,-0.0464 0,0 0,0 l -0.0038,0.05 -0.05827,0.0964 q -0.218104,0.18528 -0.218104,0.18528 v 0 l 0.05825,-0.0964 q 0.163567,-0.13905 0.167316,-0.18903 z m -2.202941,-2.62513 q -0.0038,0.05 -0.12029,0.2428 0.0038,-0.05 -0.04328,-0.10369 -0.04703,-0.0537 0.0074,-0.10014 l -0.0038,0.05 0.04703,0.0537 q 0,0 0.05093,0.004 0,0 0.0038,-0.05 l 0.0038,-0.05 0.0038,-0.05 0.05096,0.004 -0.0038,0.05 0.0038,-0.05 0.05093,0.004 z m -3.230961,-0.48641 q 0.101529,0.008 0.09405,0.10745 v 0 z m -6.33332,1.40093 -0.05827,0.0964 q 0,0 0,0 0.0038,-0.05 -0.04702,-0.0537 l 0.105276,-0.0427 q 0,0 -0.101528,-0.008 l 0.105277,-0.0427 z m 9.673326,-1.0072 q -0.0038,0.05 0.04703,0.0537 0,0 0,0 -0.0038,0.05 -0.0545,0.0464 l 0.0074,-0.10014 -0.05825,0.0964 0.0074,-0.10014 z m 1.787157,2.04153 q -0.04328,-0.1037 0.05827,-0.0964 z m -1.141222,0.92316 0.0038,-0.05 q 0.05095,0.004 0.04703,0.0537 0,0 0,0 l -0.05095,-0.004 -0.0038,0.05 z m -10.094091,-3.60121 -0.0038,0.05 0.0038,-0.05 -0.0038,0.05 q 0.101528,0.008 0.09782,0.0575 z m 9.826065,0.36215 q 0,0 0,0 0.0038,-0.05 -0.04703,-0.0537 l 0.05094,0.004 -0.0038,0.05 q 0.05096,0.004 -0.0038,0.05 z m -0.573533,0.15959 q -0.0038,0.05 -0.0545,0.0464 z m -0.306322,0.68203 v 0 q 0,0 0,0 -0.05095,-0.004 -0.04703,-0.0537 z m -9.260035,-0.42164 q -0.05095,-0.004 -0.04703,-0.0537 l -0.05095,-0.004 v 0 z m -0.919387,0.68776 v 0 l -0.0545,0.0464 z m 9.391141,-1.32956 q 0.0038,-0.05 0.0545,-0.0464 v 0 q -0.05096,-0.004 -0.0545,0.0464 z m -1.631499,-3.43879 v 0 l 0.05096,0.004 q 0,0 0,0 -0.05096,-0.004 -0.0545,0.0464 z m 2.058519,3.87229 0.05093,0.004 z m 0.109065,-0.0926 v 0 q -0.0038,0.05 0.04703,0.0537 0,0 0,0 l -0.05093,-0.004 z m -9.70537,0.75338 v 0 l 0.0038,-0.05 z m 10.193577,-3.18287 0.05095,0.004 q -0.05095,-0.004 -0.0545,0.0464 z m -1.820871,-1.59125 0.05093,0.004 z m -7.588584,4.52927 q -0.0038,0.05 0.04703,0.0537 0,0 0,0 v 0 l -0.05095,-0.004 z m 0.629712,-0.91002 q 0.0038,-0.05 0.0038,-0.05 -0.05095,-0.004 -0.05095,-0.004 v 0 l 0.05095,0.004 z m -0.20311,-0.0138 -0.05095,-0.004 z m 8.620747,0.77757 -0.0038,0.05 v 0 z m 2.151339,-0.0952 0.05095,0.004 z m -1.080461,2.83918 -0.05093,-0.004 z m -1.671034,-3.59256 v 0 l 0.05093,0.004 z m 0.622635,0.54831 -0.05094,-0.004 v 0 l 0.05094,0.004 -0.05094,-0.004 z m -8.338569,-0.45524 q 0,0 0.05093,0.004 0,0 -0.0038,0.05 v 0 l 0.0038,-0.05 z m 0.04332,0.1039 v 0 l -0.05093,-0.004 z m -0.97391,0.73409 -0.0038,0.05 -0.05095,-0.004 z m -0.507749,-0.0367 -0.05095,-0.004 z m 9.328301,-3.89972 v 0 l -0.0038,0.05 0.0038,-0.05 0.05095,0.004 -0.0038,0.05 z m -7.829566,3.65654 v 0 l 0.05094,0.004 v 0 z m 5.654926,-5.97777 v 0 0 l 0.05093,0.004 z m 1.139969,1.13929 z m -9.103972,5.67675 v 0 l 0.0038,-0.05 v 0 z m 1.932834,-1.26809 0.05093,0.004 v 0 z m 10.68552,0.47495 0.0038,-0.05 z m -10.61976,-0.67138 v 0 l -0.05093,-0.004 v 0 l 0.0038,-0.05 0.05093,0.004 z m -0.451162,0.57087 v 0 l 0.05095,0.004 v 0 z m 10.521539,-0.74431 -0.05095,-0.004 z m -10.254341,1.2668 0.0038,-0.05 z m -0.315879,0.12799 v 0 l -0.05095,-0.004 v 0 z m 8.40766,-1.14951 0.0038,-0.05 -0.0545,0.0464 0.0545,-0.0464 z m 0.01122,-0.15012 0.05096,0.004 -0.0545,0.0464 q 0.0038,-0.05 0.0545,-0.0464 z m 0.327135,-0.27804 -0.0038,0.05 v 0 0 z m 0.455319,0.73737 0.0038,-0.05 z m 0.02415,-1.00436 v 0 l -0.05093,-0.004 z m 0.188123,0.2149 q 0.0038,-0.05 0.0545,-0.0464 v 0 q 0,0 0,0 -0.05095,-0.004 -0.0545,0.0464 z m -0.415367,0.77471 0.05095,0.004 v 0 l -0.0038,0.05 -0.05096,-0.004 0.05096,0.004 -0.05096,-0.004 z m 0.0541,-1.40463 -0.0038,0.05 z m 1.529116,0.71481 0.0038,-0.05 z m -1.574273,-0.11527 v 0 l 0.05093,0.004 z m -0.07868,1.0507 v 0 l 0.05094,0.004 v 0 l -0.05094,-0.004 v 0 l -0.05095,-0.004 0.05095,0.004 v 0 q -0.04703,-0.0537 0.0038,-0.05 v 0 l 0.105276,-0.0427 -0.0545,0.0464 v 0 l -0.0038,0.05 z m 1.259001,2.95898 -0.05094,-0.004 z m -1.091687,-3.14802 v 0 l 0.0038,-0.05 z m -0.105297,0.0427 0.05096,0.004 z m 0.183974,-1.09334 -0.05096,-0.004 0.05096,0.004 -0.05096,-0.004 v 0 z m -0.129431,1.047 v 0 l 0.05093,0.004 z m -8.67111,0.57703 v 0 l -0.05096,-0.004 -0.0038,0.05 0.0038,-0.05 v 0 l 0.05096,0.004 v 0 l -0.05096,-0.004 z m 0.08615,-1.15078 -0.0038,0.05 z m -0.373749,1.58264 v 0 l -0.0038,0.05 v 0 z m 0.01122,-0.15012 0.0038,-0.05 v 0 z m 0.202693,-1.34352 0.05095,0.004 v 0 l 0.05093,0.004 -0.05093,-0.004 -0.05095,-0.004 -0.0038,0.05 0.05095,0.004 0.05094,0.004 v 0 q 0.05095,0.004 0.04702,0.0537 0,0 0,0 l 0.05094,0.004 v 0 l -0.0038,0.05 0.0038,-0.05 -0.05094,-0.004 q 0,0 0,0 0.0038,-0.05 -0.04702,-0.0537 v 0 q -0.0545,0.0464 -0.05094,-0.004 l -0.05095,-0.004 z m 0.423277,0.48353 -0.0038,0.05 0.0038,-0.05 -0.05095,-0.004 v 0 z m -0.16938,-0.46508 v 0 l -0.05095,-0.004 z m -0.620448,0.10627 -0.05095,-0.004 z m -0.0824,1.10073 v 0 l 0.0038,-0.05 -0.05093,-0.004 0.05093,0.004 z m -0.603892,-0.79863 v 0 l 0.05093,0.004 z m 0.782456,0.45933 -0.0038,0.05 0.05096,0.004 v 0 l -0.05096,-0.004 z m 0.07699,-0.34653 v 0 l -0.05095,-0.004 0.05095,0.004 -0.05095,-0.004 v 0 z m 0.03372,-0.4503 q 0.05093,0.004 0.04703,0.0537 v 0 l 0.0038,-0.05 z m -0.02041,0.95433 v 0 l -0.0038,0.05 0.0038,-0.05 -0.0038,0.05 v 0 z m -0.250134,-0.0685 q 0,0 0.05095,0.004 0,0 -0.0038,0.05 v 0 l 0.0038,-0.05 -0.05095,-0.004 -0.05093,-0.004 0.0038,-0.05 q -0.0038,0.05 0.04703,0.0537 z m 0.06204,-0.14636 0.05096,0.004 -0.0074,0.10014 v 0 l 0.05093,0.004 v 0 l -0.05093,-0.004 v 0 q 0.0038,-0.05 -0.04703,-0.0537 0.05095,0.004 0.0545,-0.0464 z m 0.03572,0.20384 v 0 l 0.0038,-0.05 -0.05093,-0.004 -0.09405,-0.10745 v 0 l 0.05093,0.004 v 0 l 0.05095,0.004 -0.05095,-0.004 q 0,0 0.05095,0.004 0,0 -0.0038,0.05 v 0 l -0.04703,-0.0537 0.04703,0.0537 v 0 l -0.0038,0.05 0.05093,0.004 z m 7.810421,-4.76466 v 0 l 0.05095,0.004 z m -0.566459,4.83851 q 0,0 0,0 0.0038,-0.05 -0.04703,-0.0537 l -0.05093,-0.004 q 0.0038,-0.05 0.0038,-0.05 -0.05096,-0.004 -0.05096,-0.004 v 0 l -0.05093,-0.004 v 0 l 0.05093,0.004 v 0 l 0.0038,-0.05 -0.05093,-0.004 -0.05096,-0.004 0.0038,-0.05 q 0.05095,0.004 0.04703,0.0537 0,0 0,0 0.152322,0.0118 0.238905,0.21859 v 0 q 0,0 0,0 0.0038,-0.05 -0.04703,-0.0537 z m 1.148717,-1.02322 -0.0038,0.05 v 0 z m -0.296328,-3.54297 v 0 l 0.05096,0.004 z m 0.246376,0.11851 v 0 l 0.05093,0.004 z m -6.944305,2.06079 v 0 l 0.0038,-0.05 v 0 z m 0.137349,0.21121 -0.05095,-0.004 z m -0.514845,1.42144 v 0 l -0.05093,-0.004 v 0 z m 1.720162,-1.83688 v 0 l 0.0038,-0.05 z m -5.285331,3.08691 q -0.116522,0.19278 -0.469894,0.82104 -0.349607,0.57826 -0.543142,1.11756 l -0.01864,0.25016 v 0 q 0.07904,0.30759 0.321723,0.47614 0.485288,0.33712 0.786202,0.40929 0.601822,0.14439 0.910225,0.11654 l 0.62045,-0.10646 q 0.464479,-0.0668 1.314357,-0.50814 0.81409,-0.64509 1.331012,-1.41243 l 0.637205,-1.01011 0.764981,-1.35294 q 0.458654,-0.67095 1.236947,-1.51988 l 0.0545,-0.0464 0.141077,0.16117 q 0.289675,0.22227 0.379988,0.37975 0.66592,0.65209 1.053398,0.93178 l 0.332962,0.32604 q 0.579348,0.44455 0.814504,0.7132 0.148594,0.0612 0.246374,0.11851 0.04703,0.0537 0.09405,0.10745 l 0.379991,0.37977 q 0.340451,0.22596 0.91231,0.77061 0.09405,0.10745 0.191871,0.16493 0.0978,0.0575 0.19562,0.11496 l 0.383736,0.32971 0.242643,0.16849 0.340455,0.22598 q 0.04702,0.0537 0.340446,0.22596 l 0.199348,0.0648 0.402456,0.0796 q 0.152323,0.0119 0.257503,-0.0322 l -0.05094,-0.004 0.05094,0.004 q 0.05093,0.004 0.261373,-0.0816 v 0 l 0.0038,-0.05 -0.0038,0.05 q 0.0038,-0.05 0.0545,-0.0464 0,0 0,0 v 0 l 0.0545,-0.0464 q 0.105296,-0.0427 0.323398,-0.22798 l 0.05827,-0.0964 v 0 q 0.0038,-0.05 0.120291,-0.24279 v 0 q 0.0545,-0.0464 0.05827,-0.0964 -0.04703,-0.0537 -0.04328,-0.1037 v 0 l 0.06575,-0.19653 q -0.04703,-0.0537 -0.03953,-0.15387 0.02247,-0.3002 -0.01704,-0.45399 l 0.0038,-0.05 q 0.05827,-0.0964 -0.02081,-0.40397 0,0 0,0 0.0038,-0.05 -0.04703,-0.0537 -0.04703,-0.0537 -0.148594,-0.0612 l 0.0038,-0.05 -0.141077,-0.16117 -0.04703,-0.0537 q 0.01123,-0.15011 -0.137348,-0.2112 v 0 q 0.0038,-0.05 -0.08283,-0.25755 l -0.05095,-0.004 0.0038,-0.05 v 0 q 0.01123,-0.15011 -0.137349,-0.21121 v 0 q 0,0 0,0 0.0038,-0.05 -0.04703,-0.0537 v 0 q -0.0038,0.05 0.04703,0.0537 l -0.05095,-0.004 -0.04703,-0.0537 v 0 l 0.05093,0.004 v 0 l 0.0038,-0.05 -0.0545,0.0464 0.05827,-0.0964 -0.05093,-0.004 q -0.0038,0.05 -0.0038,0.05 -0.05095,-0.004 -0.05095,-0.004 v 0 l 0.0038,-0.05 0.05095,0.004 q 0.0038,-0.05 -0.04703,-0.0537 v 0 l 0.0038,-0.05 -0.05093,-0.004 -0.0038,0.05 0.0038,-0.05 0.05093,0.004 q -0.05093,-0.004 0,0 0.0038,-0.05 -0.04703,-0.0537 l 0.0038,-0.05 -0.05096,-0.004 v 0 l -0.05093,-0.004 0.0074,-0.10014 v 0 l -0.0545,0.0464 v 0 q 0,0 0,0 0.0038,-0.05 0.0545,-0.0464 l -0.101528,-0.008 0.0074,-0.10014 -0.05095,-0.004 -0.0038,0.05 0.0038,-0.05 0.0038,-0.05 q -0.0038,0.05 -0.0038,0.05 -0.05093,-0.004 -0.05093,-0.004 v 0 q -0.05095,-0.004 -0.0545,0.0464 0,0 0,0 l 0.0038,-0.05 0.05096,0.004 v 0 l 0.0038,-0.05 -0.05095,-0.004 0.0038,-0.05 0.0038,-0.05 v 0 l -0.0545,0.0464 -0.0038,0.05 0.0038,-0.05 0.0038,-0.05 -0.101568,-0.008 0.05825,-0.0964 0.0038,-0.05 -0.09782,-0.0575 v 0 0 l -0.05095,-0.004 v 0 l 0.05095,0.004 q 0.0074,-0.10014 -0.141077,-0.16118 v 0 q 0.05095,0.004 0.0545,-0.0464 l -0.05095,-0.004 -0.0038,0.05 0.0038,-0.05 q 0.0074,-0.10014 -0.09405,-0.10745 l 0.0038,-0.05 q -0.09405,-0.10745 -0.144825,-0.11121 v 0 q 0.05093,0.004 0.05093,0.004 0.0038,-0.05 -0.04703,-0.0537 l -0.04328,-0.1037 q -0.04702,-0.0537 -0.148594,-0.0612 l 0.05093,0.004 v 0 q -0.04703,-0.0537 -0.04703,-0.0537 -0.05095,-0.004 -0.05095,-0.004 v 0 q 0,0 0.05095,0.004 0.0038,-0.05 -0.04703,-0.0537 0,0 0,0 0.0038,-0.05 -0.04702,-0.0537 v 0 l 0.0038,-0.05 -0.05095,-0.004 v 0 l 0.0074,-0.10014 -0.0545,0.0464 0.0038,-0.05 v 0 l -0.0038,0.05 0.0038,-0.05 v 0 l -0.05096,-0.004 0.0038,-0.05 0.05095,0.004 0.0038,-0.05 -0.0545,0.0464 v 0 l -0.05093,-0.004 0.0038,-0.05 v 0 l -0.0038,0.05 v 0 l 0.05827,-0.0964 -0.0545,0.0464 -0.05095,-0.004 q 0.05095,0.004 0.05095,0.004 0.0038,-0.05 0.0038,-0.05 0.0038,-0.05 -0.04703,-0.0537 v 0 l 0.0038,-0.05 -0.05094,-0.004 0.0038,-0.05 q 0,0 -0.0038,0.05 0,0 -0.05095,-0.004 v 0 q 0.05095,0.004 0.05095,0.004 0.0038,-0.05 0.0038,-0.05 v 0 q 0,0 0,0 -0.05095,-0.004 -0.04703,-0.0537 0,0 -0.0038,0.05 0,0 -0.05094,-0.004 0.05827,-0.0964 0.01123,-0.15011 l -0.05096,-0.004 -0.04332,-0.1039 q 0,0 0,0 0.0038,-0.05 -0.04703,-0.0537 l -0.0038,0.05 q 0.01503,-0.20007 -0.133601,-0.26124 v 0 q 0.0038,-0.05 -0.04332,-0.10389 -0.04702,-0.0537 -0.04328,-0.1037 l -0.101568,-0.008 v 0 q 0.0545,-0.0464 0.0074,-0.10014 l -0.04703,-0.0537 q -0.09405,-0.10745 -0.09405,-0.10745 v 0 l -0.05093,-0.004 q 0,0 0,0 0.0038,-0.05 -0.04703,-0.0537 0.05096,0.004 0.0545,-0.0464 l -0.05096,-0.004 0.0038,-0.05 -0.105297,0.0427 0.0038,-0.05 0.05095,0.004 q 0.0038,-0.05 -0.04702,-0.0537 l -0.05094,-0.004 q 0,0 -0.0038,0.05 0,0 -0.05096,-0.004 v 0 q 0.05096,0.004 0.0545,-0.0464 0,0 0.05093,0.004 0,0 0.0038,-0.05 l -0.05094,-0.004 0.0038,-0.05 -0.0545,0.0464 v 0 l 0.0038,-0.05 -0.05093,-0.004 q 0.05093,0.004 0.0545,-0.0464 0,0 0,0 0.0038,-0.05 -0.04703,-0.0537 l -0.05095,-0.004 0.0038,-0.05 -0.05095,-0.004 0.0038,-0.05 q -0.05093,-0.004 -0.0545,0.0464 -0.05095,-0.004 -0.101528,-0.008 0,0 0.105297,-0.0427 0.0545,-0.0464 0.0074,-0.10015 -0.0038,0.05 -0.0038,0.05 -0.05096,-0.004 -0.05096,-0.004 0.0074,-0.10015 -0.04328,-0.1037 l -0.0038,0.05 -0.0545,0.0464 0.05827,-0.0964 q 0.0038,-0.05 -0.04703,-0.0537 l 0.05096,0.004 -0.05096,-0.004 v 0 l 0.0038,-0.05 -0.0545,0.0464 -0.0038,0.05 0.0038,-0.05 0.0545,-0.0464 q -0.05093,-0.004 -0.05093,-0.004 0.0038,-0.05 0.0038,-0.05 l -0.101568,-0.008 q -0.05095,-0.004 -0.04703,-0.0537 l 0.101528,0.008 -0.05093,-0.004 v 0 q 0.0038,-0.05 -0.04703,-0.0537 v 0 l 0.0038,-0.05 -0.05094,-0.004 0.0038,-0.05 -0.05096,-0.004 0.0038,-0.05 -0.105297,0.0427 0.05827,-0.0964 -0.0545,0.0464 -0.05094,-0.004 v 0 l 0.05094,0.004 0.0038,-0.05 -0.05093,-0.004 0.0038,-0.05 0.0038,-0.05 -0.0545,0.0464 -0.0038,0.05 -0.09782,-0.0575 -0.0038,0.05 q 0.0038,-0.05 0.0545,-0.0464 l 0.0545,-0.0464 -0.05094,-0.004 0.0038,-0.05 -0.05825,0.0964 q 0.0074,-0.10014 0.06204,-0.14636 l -0.05095,-0.004 -0.0038,0.05 q -0.05093,-0.004 -0.0545,0.0464 0,0 0,0 l -0.05096,-0.004 -0.0038,0.05 0.0038,-0.05 0.05096,0.004 0.0038,-0.05 0.0038,-0.05 0.0545,-0.0464 -0.05093,-0.004 -0.09782,-0.0575 -0.05095,-0.004 -0.0038,0.05 v 0 q 0,0 -0.05093,-0.004 -0.05096,-0.004 0.0038,-0.05 0.05827,-0.0964 0.01122,-0.15011 0.0038,-0.05 -0.04702,-0.0537 l -0.0038,0.05 -0.05093,-0.004 -0.05095,-0.004 v 0 l 0.05095,0.004 0.0038,-0.05 -0.05095,-0.004 v 0 l 0.05095,0.004 0.0074,-0.10014 q -0.0038,0.05 -0.0038,0.05 -0.05095,-0.004 -0.05095,-0.004 l -0.05093,-0.004 v 0 l 0.05827,-0.0964 v 0 q -0.05094,-0.004 -0.0545,0.0464 0,0 0,0 l -0.04332,-0.10389 -0.05094,-0.004 -0.0038,0.05 0.0038,-0.05 v 0 0 l -0.05093,-0.004 0.05093,0.004 q 0.0074,-0.10014 -0.09405,-0.10745 l -0.0545,0.0464 q 0.05827,-0.0964 0.01123,-0.15011 -0.05094,-0.004 -0.04703,-0.0537 -0.04702,-0.0537 -0.152322,-0.0119 v 0 q 0.0038,-0.05 0.0545,-0.0464 l -0.141077,-0.16118 q 0,0 0,0 -0.05093,-0.004 -0.0545,0.0464 v 0 l -0.05095,-0.004 0.05095,0.004 v 0 q 0.0038,-0.05 0.0545,-0.0464 l -0.09405,-0.10745 q 0.0038,-0.05 -0.09782,-0.0575 l 0.0545,-0.0464 -0.09405,-0.10745 -0.04703,-0.0537 q -0.09405,-0.10745 -0.0903,-0.15742 L 34.19154,244.9721 q -0.03953,-0.15387 -0.227671,-0.36869 -0.282186,-0.32235 -0.282186,-0.32235 -0.04328,-0.10369 -0.144826,-0.1112 -0.09782,-0.0575 -0.148554,-0.061 l -0.398717,-0.12957 -0.507749,-0.0367 q -0.101528,-0.008 -0.15601,0.0393 -0.460719,0.0178 -0.93644,0.23381 -1.017193,0.63034 -1.537863,1.44769 l -1.146634,1.67736 -1.306457,1.76635 q -1.357227,1.76267 -2.172984,3.11193 z" />
  </g>
</svg>
